<mxfile host="app.diagrams.net" modified="2023-11-13T01:50:42.254Z" agent="Mozilla/5.0 (Windows NT 10.0; Win64; x64) AppleWebKit/537.36 (KHTML, like Gecko) Chrome/119.0.0.0 Safari/537.36" etag="eSR4E9ze8wE42n3zQuRV" version="21.7.1" type="onedrive">
  <diagram name="Diagrama de solução" id="orizKRp7xHpelZbIDq7r">
    <mxGraphModel grid="1" page="1" gridSize="10" guides="1" tooltips="1" connect="1" arrows="1" fold="1" pageScale="1" pageWidth="827" pageHeight="1169" background="none" math="0" shadow="0">
      <root>
        <mxCell id="0" />
        <mxCell id="1" parent="0" />
        <mxCell id="QrPPsz6FEspivWG-lhQE-44" style="edgeStyle=orthogonalEdgeStyle;rounded=0;orthogonalLoop=1;jettySize=auto;html=1;" edge="1" parent="1" source="QrPPsz6FEspivWG-lhQE-1" target="QrPPsz6FEspivWG-lhQE-7">
          <mxGeometry relative="1" as="geometry" />
        </mxCell>
        <mxCell id="QrPPsz6FEspivWG-lhQE-1" value="Arduino UNO R3 /&lt;br&gt;ENTRADA ANALÓGICA" style="rounded=0;whiteSpace=wrap;html=1;" vertex="1" parent="1">
          <mxGeometry x="370" y="180" width="120" height="60" as="geometry" />
        </mxCell>
        <mxCell id="QrPPsz6FEspivWG-lhQE-53" style="edgeStyle=orthogonalEdgeStyle;rounded=0;orthogonalLoop=1;jettySize=auto;html=1;entryX=0.5;entryY=0;entryDx=0;entryDy=0;" edge="1" parent="1" source="QrPPsz6FEspivWG-lhQE-2" target="QrPPsz6FEspivWG-lhQE-1">
          <mxGeometry relative="1" as="geometry" />
        </mxCell>
        <mxCell id="QrPPsz6FEspivWG-lhQE-2" value="SENSOR DE LUMINOSIDADE LDR5" style="rounded=0;whiteSpace=wrap;html=1;" vertex="1" parent="1">
          <mxGeometry x="520" y="80" width="120" height="60" as="geometry" />
        </mxCell>
        <mxCell id="QrPPsz6FEspivWG-lhQE-43" style="edgeStyle=orthogonalEdgeStyle;rounded=0;orthogonalLoop=1;jettySize=auto;html=1;" edge="1" parent="1" source="QrPPsz6FEspivWG-lhQE-3" target="QrPPsz6FEspivWG-lhQE-5">
          <mxGeometry relative="1" as="geometry" />
        </mxCell>
        <mxCell id="QrPPsz6FEspivWG-lhQE-3" value="REDE&lt;br&gt;" style="rounded=0;whiteSpace=wrap;html=1;" vertex="1" parent="1">
          <mxGeometry x="190" y="410" width="120" height="60" as="geometry" />
        </mxCell>
        <mxCell id="QrPPsz6FEspivWG-lhQE-4" value="&amp;nbsp;BANCO DE DADOS / NUVEM" style="rounded=0;whiteSpace=wrap;html=1;" vertex="1" parent="1">
          <mxGeometry x="380" y="540" width="120" height="60" as="geometry" />
        </mxCell>
        <mxCell id="QrPPsz6FEspivWG-lhQE-46" style="edgeStyle=orthogonalEdgeStyle;rounded=0;orthogonalLoop=1;jettySize=auto;html=1;" edge="1" parent="1" source="QrPPsz6FEspivWG-lhQE-5" target="QrPPsz6FEspivWG-lhQE-4">
          <mxGeometry relative="1" as="geometry" />
        </mxCell>
        <mxCell id="QrPPsz6FEspivWG-lhQE-5" value="API&lt;br&gt;" style="rounded=0;whiteSpace=wrap;html=1;" vertex="1" parent="1">
          <mxGeometry x="190" y="540" width="120" height="60" as="geometry" />
        </mxCell>
        <mxCell id="QrPPsz6FEspivWG-lhQE-39" style="edgeStyle=orthogonalEdgeStyle;rounded=0;orthogonalLoop=1;jettySize=auto;html=1;" edge="1" parent="1" source="QrPPsz6FEspivWG-lhQE-6" target="QrPPsz6FEspivWG-lhQE-3">
          <mxGeometry relative="1" as="geometry" />
        </mxCell>
        <mxCell id="QrPPsz6FEspivWG-lhQE-40" style="edgeStyle=orthogonalEdgeStyle;rounded=0;orthogonalLoop=1;jettySize=auto;html=1;" edge="1" parent="1" source="QrPPsz6FEspivWG-lhQE-6" target="QrPPsz6FEspivWG-lhQE-8">
          <mxGeometry relative="1" as="geometry" />
        </mxCell>
        <mxCell id="QrPPsz6FEspivWG-lhQE-6" value="COMPUTADOR" style="rounded=0;whiteSpace=wrap;html=1;" vertex="1" parent="1">
          <mxGeometry x="190" y="290" width="120" height="60" as="geometry" />
        </mxCell>
        <mxCell id="QrPPsz6FEspivWG-lhQE-52" style="edgeStyle=orthogonalEdgeStyle;rounded=0;orthogonalLoop=1;jettySize=auto;html=1;entryX=1;entryY=0.5;entryDx=0;entryDy=0;exitX=0.5;exitY=0;exitDx=0;exitDy=0;" edge="1" parent="1" source="QrPPsz6FEspivWG-lhQE-7" target="QrPPsz6FEspivWG-lhQE-2">
          <mxGeometry relative="1" as="geometry" />
        </mxCell>
        <mxCell id="QrPPsz6FEspivWG-lhQE-7" value="PROTOBOARD" style="rounded=0;whiteSpace=wrap;html=1;" vertex="1" parent="1">
          <mxGeometry x="690" y="180" width="120" height="60" as="geometry" />
        </mxCell>
        <mxCell id="QrPPsz6FEspivWG-lhQE-10" style="edgeStyle=orthogonalEdgeStyle;rounded=0;orthogonalLoop=1;jettySize=auto;html=1;" edge="1" parent="1" source="QrPPsz6FEspivWG-lhQE-8" target="QrPPsz6FEspivWG-lhQE-1">
          <mxGeometry relative="1" as="geometry" />
        </mxCell>
        <mxCell id="QrPPsz6FEspivWG-lhQE-8" value="CABO USB" style="rounded=0;whiteSpace=wrap;html=1;" vertex="1" parent="1">
          <mxGeometry x="190" y="180" width="120" height="60" as="geometry" />
        </mxCell>
        <mxCell id="QrPPsz6FEspivWG-lhQE-58" style="edgeStyle=orthogonalEdgeStyle;rounded=0;orthogonalLoop=1;jettySize=auto;html=1;entryX=0;entryY=0.5;entryDx=0;entryDy=0;" edge="1" parent="1" source="QrPPsz6FEspivWG-lhQE-24" target="QrPPsz6FEspivWG-lhQE-54">
          <mxGeometry relative="1" as="geometry" />
        </mxCell>
        <mxCell id="QrPPsz6FEspivWG-lhQE-63" style="edgeStyle=orthogonalEdgeStyle;rounded=0;orthogonalLoop=1;jettySize=auto;html=1;entryX=0;entryY=0.5;entryDx=0;entryDy=0;exitX=0.5;exitY=1;exitDx=0;exitDy=0;" edge="1" parent="1" source="QrPPsz6FEspivWG-lhQE-24" target="QrPPsz6FEspivWG-lhQE-59">
          <mxGeometry relative="1" as="geometry" />
        </mxCell>
        <mxCell id="QrPPsz6FEspivWG-lhQE-24" value="ARDUINO IDE" style="rounded=0;whiteSpace=wrap;html=1;" vertex="1" parent="1">
          <mxGeometry x="370" y="290" width="120" height="60" as="geometry" />
        </mxCell>
        <mxCell id="QrPPsz6FEspivWG-lhQE-42" style="edgeStyle=orthogonalEdgeStyle;rounded=0;orthogonalLoop=1;jettySize=auto;html=1;entryX=0;entryY=0.5;entryDx=0;entryDy=0;" edge="1" parent="1" source="QrPPsz6FEspivWG-lhQE-41" target="QrPPsz6FEspivWG-lhQE-6">
          <mxGeometry relative="1" as="geometry" />
        </mxCell>
        <mxCell id="QrPPsz6FEspivWG-lhQE-41" value="USUÁRIO" style="rounded=0;whiteSpace=wrap;html=1;" vertex="1" parent="1">
          <mxGeometry x="10" y="290" width="120" height="60" as="geometry" />
        </mxCell>
        <mxCell id="QrPPsz6FEspivWG-lhQE-45" value="JUMPERS / RESISTOR" style="text;html=1;strokeColor=none;fillColor=none;align=center;verticalAlign=middle;whiteSpace=wrap;rounded=0;" vertex="1" parent="1">
          <mxGeometry x="540" y="170" width="100" height="30" as="geometry" />
        </mxCell>
        <mxCell id="QrPPsz6FEspivWG-lhQE-54" value="LINHA DE CÓDIGO" style="rounded=0;whiteSpace=wrap;html=1;" vertex="1" parent="1">
          <mxGeometry x="600" y="290" width="120" height="60" as="geometry" />
        </mxCell>
        <mxCell id="QrPPsz6FEspivWG-lhQE-57" value="" style="endArrow=classic;startArrow=classic;html=1;rounded=0;exitX=0.5;exitY=0;exitDx=0;exitDy=0;entryX=0.5;entryY=1;entryDx=0;entryDy=0;" edge="1" parent="1" source="QrPPsz6FEspivWG-lhQE-24" target="QrPPsz6FEspivWG-lhQE-1">
          <mxGeometry width="50" height="50" relative="1" as="geometry">
            <mxPoint x="390" y="290" as="sourcePoint" />
            <mxPoint x="440" y="240" as="targetPoint" />
          </mxGeometry>
        </mxCell>
        <mxCell id="QrPPsz6FEspivWG-lhQE-64" style="edgeStyle=orthogonalEdgeStyle;rounded=0;orthogonalLoop=1;jettySize=auto;html=1;entryX=0.5;entryY=1;entryDx=0;entryDy=0;exitX=0.5;exitY=1;exitDx=0;exitDy=0;" edge="1" parent="1" source="QrPPsz6FEspivWG-lhQE-59" target="QrPPsz6FEspivWG-lhQE-41">
          <mxGeometry relative="1" as="geometry" />
        </mxCell>
        <mxCell id="QrPPsz6FEspivWG-lhQE-59" value="MONITOR SERIAL /&lt;br&gt;DADOS EM TEMPO REAL" style="rounded=0;whiteSpace=wrap;html=1;" vertex="1" parent="1">
          <mxGeometry x="500" y="420" width="120" height="60" as="geometry" />
        </mxCell>
      </root>
    </mxGraphModel>
  </diagram>
</mxfile>
